<?xml version="1.0" encoding="UTF-8"?>
<svg version="1.1" xmlns="http://www.w3.org/2000/svg" width="132" height="132">
<path d="M0 0 C43.56 0 87.12 0 132 0 C132 43.56 132 87.12 132 132 C88.44 132 44.88 132 0 132 C0 88.44 0 44.88 0 0 Z " fill="#9C1930" transform="translate(0,0)"/>
<path d="M0 0 C-2.78387709 5.07648175 -6.40829416 9.4833069 -10 14 C-12.14505516 12.93490333 -14.27914637 11.85429921 -16.40234375 10.74609375 C-17.65724609 10.09833984 -17.65724609 10.09833984 -18.9375 9.4375 C-19.77152344 9.00308594 -20.60554688 8.56867187 -21.46484375 8.12109375 C-27.21609048 5.57778433 -33.58562958 4.79247875 -39.5625 6.90625 C-46.33104621 10.04878931 -51.18212026 13.88179074 -54 21 C-54.85063619 29.58549084 -54.69773276 36.59751201 -50 44 C-49.67 44.99 -49.34 45.98 -49 47 C-47.35369807 48.11935073 -47.35369807 48.11935073 -45 49 C-44.43023437 49.26039062 -43.86046875 49.52078125 -43.2734375 49.7890625 C-34.25711535 53.63267393 -27.06183783 52.06315645 -18 49 C-18 44.38 -18 39.76 -18 35 C-12.06 35 -6.12 35 0 35 C0.08132642 38.04221065 0.14065374 41.0822238 0.1875 44.125 C0.21263672 44.9809375 0.23777344 45.836875 0.26367188 46.71875 C0.34087458 53.4096509 -0.75156152 57.63913959 -5.5 62.625 C-15.74217146 70.58257682 -30.12706645 71.10531401 -42.41796875 69.57421875 C-54.41506798 67.23786609 -63.9932718 61.05037484 -71 51 C-75.48510106 43.88947393 -76.45927559 37.04995981 -76.5625 28.8125 C-76.57732422 27.98129639 -76.59214844 27.15009277 -76.60742188 26.29370117 C-76.4344465 15.91208981 -71.39430528 7.53530474 -64.5 0 C-46.85079221 -16.99794551 -18.02468126 -15.1044815 0 0 Z " fill="#FDFAFB" transform="translate(102,36)"/>
<path d="M0 0 C0.33 0 0.66 0 1 0 C1 19.8 1 39.6 1 60 C-42.56 60 -86.12 60 -131 60 C-131 40.53 -131 21.06 -131 1 C-130.67 1 -130.34 1 -130 1 C-129.79246094 1.92039062 -129.58492187 2.84078125 -129.37109375 3.7890625 C-126.02469293 17.53870939 -120.74383206 29.45842731 -111 40 C-110.43152344 40.62261719 -109.86304687 41.24523437 -109.27734375 41.88671875 C-96.87063536 54.02075223 -79.05331417 58.49972628 -62.19140625 58.35644531 C-55.8445315 58.15665774 -50.02985306 57.0157939 -44 55 C-42.7625 54.61714844 -42.7625 54.61714844 -41.5 54.2265625 C-24.07464424 48.13885808 -12.97527226 35.02395902 -4.84765625 19.05078125 C-2.4731787 14.09670421 -0.95104743 9.0349506 -0.375 3.5625 C-0.189375 1.7990625 -0.189375 1.7990625 0 0 Z " fill="#FDFCFC" transform="translate(131,72)"/>
<path d="M0 0 C17.16 0 34.32 0 52 0 C52 18.81 52 37.62 52 57 C51.67 57 51.34 57 51 57 C50.92523438 56.35675781 50.85046875 55.71351562 50.7734375 55.05078125 C48.37789775 38.58731689 38.82249681 23.4963767 26 13 C17.86469488 7.52450123 9.48044026 3.63924344 0 1 C0 0.67 0 0.34 0 0 Z " fill="#FDFBFB" transform="translate(80,0)"/>
<path d="M0 0 C17.82 0 35.64 0 54 0 C50.91673913 1.54163044 48.68042214 2.41656367 45.4375 3.25 C29.05464759 8.1023991 17.80327947 18.84139219 9 33 C8.46632813 33.81984375 7.93265625 34.6396875 7.3828125 35.484375 C5.7692827 38.41972301 4.82735833 41.29047743 3.875 44.5 C3.37613281 46.15515625 3.37613281 46.15515625 2.8671875 47.84375 C2.12223604 50.55510487 1.50543572 53.23557609 1 56 C0.67 56 0.34 56 0 56 C0 37.52 0 19.04 0 0 Z " fill="#FDFBFC" transform="translate(0,0)"/>
</svg>
